<html>
<head>
<meta charset="UTF-8">
<meta name="viewport" content="width=device-width, initial-scale=1.0"/>

<style>
.comment
{
    padding-left: 20px;
    margin-top: 4px;
    margin-right: 4px;
    margin-bottom: 4px;
    border: 2px #000 solid;
}
.submission
{
    border: 4px #00f solid;
    padding-left: 20px;
}
.hidden
{
    display: none;
}
</style>
</head>
<body><div class="submission" id="t3_6rd2f0">
    <p class="userinfo">
        <a href="https://www.reddit.com/u/TheMrMcGibblets">TheMrMcGibblets</a>
        <span class="score"> | 25 points</span>
        <span class="timestamp"> | Aug 03 2017 15:32:08</span>
    </p>
    <strong>[MOVIE] King Arthur Legend of the Sword 2017 1080p BluRay. x265 10bit [2.65GB]</strong>
    <p><p>Add mega</p>
<p>.nz/#!h6YGVTDL</p>
<p>!r4Rdye13N6znONoeFzCC3pUfcrwMDF0yJnP7l4yHLe8</p>
<pre><code>Video
ID                             : 1
Format                         : HEVC
Format profile                 : Main 10@L4@Main
Duration                       : 2 h 6 min
Bit rate                       : 2 550 kb/s
Width                          : 1 920 pixels
Height                         : 800 pixels
Display aspect ratio           : 2.40:1
Frame rate mode                : Constant
Frame rate                     : 23.976 (24000/1001) FPS
Color space                    : YUV
Chroma subsampling             : 4:2:0
Bit depth                      : 10 bits
Stream size                    : 2.25 GiB (85%)
Writing library                : x265 2.5+6 [64 bit] 10bit
Language                       : English
Default                        : Yes

Audio
ID                             : 2
Format                         : AC-3
Duration                       : 2 h 6 min
Bit rate mode                  : Constant
Bit rate                       : 448 kb/s
Channel(s)                     : 6 channels
Channel positions              : Front: L C R, Side: L R, LFE
Sampling rate                  : 48.0 kHz
Frame rate                     : 31.250 FPS (1536 SPF)
Bit depth                      : 16 bits
Compression mode               : Lossy
Stream size                    : 404 MiB (15%)
Language                       : English
Service kind                   : Complete Main
Default                        : Yes
</code></pre></p>
    <p class="toolbar">
        <a href="https://www.reddit.com/r/megalinks/comments/6rd2f0">permalink</a>
    </p>
</div>
<div class="comment" id="t1_dl72nj8">
    <p class="userinfo">
        <a
        class="toggle_hide_button"
        href="javascript:void(0)"
        onclick="toggle_collapse(this.parentElement.parentElement)">[-]
        </a>
        <a href="https://www.reddit.com/u/simmy44">simmy44</a>
        <span class="score"> | 3 points</span>
        <span class="timestamp"> | Aug 05 2017 09:32:31</span>
    </p>
    <div class="collapsible">
        <p>one of the worst movies I have ever seen in my life, it's basically "Lock Stock &amp; Two Smoking Swords" Guy Richie has zero originality, a Cockney King Arthur brought up in Londinium LoL</p>
        <p class="toolbar">
            <a href="https://www.reddit.com/r/megalinks/comments/6rd2f0/_/dl72nj8">permalink</a>
        </p>
        
    </div>
</div>

<div class="comment" id="t1_dl4332y">
    <p class="userinfo">
        <a
        class="toggle_hide_button"
        href="javascript:void(0)"
        onclick="toggle_collapse(this.parentElement.parentElement)">[-]
        </a>
        <a href="https://www.reddit.com/u/SubZorro">SubZorro</a>
        <span class="score"> | 1 points</span>
        <span class="timestamp"> | Aug 03 2017 15:37:05</span>
    </p>
    <div class="collapsible">
        <h5>Subtitles for this movie:</h5>
<hr>
<blockquote>
<ul>
<li>
<p><strong>King Arthur Legend of the Sword (2017) WEB-DL</strong> - <code>1 CD</code> - <a href="http://dl.opensubtitles.org/en/download/vrf-8f45fc5d/sub/7021620">Download Subtitle</a></p>
</li>
<li>
<p><strong>King.Arthur.Legend.of.the.Sword.2017.720p.KORSUB.HDRip.x264.AAC2.0-STUTTERSHIT</strong> - <code>1 CD</code> - <a href="http://dl.opensubtitles.org/en/download/vrf-bd41220b/sub/7021237">Download Subtitle</a></p>
</li>
<li>
<p><strong>King.Arthur.Legend.of.the.Sword.2017.720p.BluRay.x264-Replica</strong> - <code>1 CD</code> - <a href="http://dl.opensubtitles.org/en/download/vrf-2b29ba6c/sub/7050993">Download Subtitle</a></p>
</li>
<li>
<p><strong>King.Arthur.Legend.of.the.Sword.2017.720p.WEB-DL.DD5.1.H264-FGT</strong> - <code>1 CD</code> - <a href="http://dl.opensubtitles.org/en/download/vrf-3853e255/sub/7048671">Download Subtitle</a></p>
</li>
<li>
<p><strong>King.Arthur.Legend.of.the.Sword.2017.720p.BluRay.x264-Replica(Colored)</strong> - <code>1 CD</code> - <a href="http://dl.opensubtitles.org/en/download/vrf-ac762cff/sub/7049327">Download Subtitle</a></p>
</li>
<li>
<p><strong>King.Arthur.Legend.of.the.Sword.2017.HDRip.XviD.AC3-EVO</strong> - <code>1 CD</code> - <a href="http://dl.opensubtitles.org/en/download/vrf-d6f1c858/sub/7048649">Download Subtitle</a></p>
</li>
</ul>
</blockquote>
<hr>
<p>^This ^list ^of ^subtitles ^are ^taken ^from <a href="http://www.opensubtitles.org">^opensubtitles.org</a> ^| ^For ^feedback ^or ^suggestions ^contact <a href="http://www.reddit.com/message/compose/?to=indigo6alpha">^/u/indigo6alpha</a></p>
        <p class="toolbar">
            <a href="https://www.reddit.com/r/megalinks/comments/6rd2f0/_/dl4332y">permalink</a>
        </p>
        
    </div>
</div>
</body>

<script>
function toggle_collapse(comment_div)
{
    var button = comment_div.getElementsByClassName("toggle_hide_button")[0];
    var collapsible = comment_div.getElementsByClassName("collapsible")[0];
    if (collapsible.classList.contains("hidden"))
    {
        collapsible.classList.remove("hidden");
        button.innerText = "[-]";
    }
    else
    {
        collapsible.classList.add("hidden");
        button.innerText = "[+]";
    }
}
</script>
</html>
